<?xml version="1.0" encoding="UTF-8"?><svg xmlns="http://www.w3.org/2000/svg" xmlns:xlink="http://www.w3.org/1999/xlink" fill-opacity="1" color-rendering="auto" color-interpolation="auto" text-rendering="auto" stroke="black" stroke-linecap="square" width="121" stroke-miterlimit="10" shape-rendering="auto" stroke-opacity="1" fill="black" stroke-dasharray="none" font-weight="normal" stroke-width="1" height="411" font-family="'Dialog'" font-style="normal" stroke-linejoin="miter" font-size="12px" stroke-dashoffset="0" image-rendering="auto">
  <!--Generated by ySVG 2.5-->
  <defs id="genericDefs"/>
  <g>
    <defs id="defs1">
      <clipPath clipPathUnits="userSpaceOnUse" id="clipPath1">
        <path d="M0 0 L121 0 L121 411 L0 411 L0 0 Z"/>
      </clipPath>
      <clipPath clipPathUnits="userSpaceOnUse" id="clipPath2">
        <path d="M604 159 L725 159 L725 570 L604 570 L604 159 Z"/>
      </clipPath>
    </defs>
    <g fill="white" text-rendering="geometricPrecision" shape-rendering="geometricPrecision" transform="translate(-604,-159)" stroke="white">
      <rect x="604" width="121" height="411" y="159" clip-path="url(#clipPath2)" stroke="none"/>
    </g>
    <g fill="rgb(151,216,255)" text-rendering="geometricPrecision" shape-rendering="geometricPrecision" transform="matrix(1,0,0,1,-604,-159)" stroke="rgb(151,216,255)">
      <rect x="619" width="91" height="42" y="174" clip-path="url(#clipPath2)" stroke="none"/>
    </g>
    <g text-rendering="geometricPrecision" stroke-miterlimit="1.45" shape-rendering="geometricPrecision" font-family="sans-serif" transform="matrix(1,0,0,1,-604,-159)" stroke-linecap="butt">
      <text x="640.4854" xml:space="preserve" y="199.1543" clip-path="url(#clipPath2)" stroke="none">Adresse</text>
    </g>
    <g fill="rgb(151,216,255)" text-rendering="geometricPrecision" shape-rendering="geometricPrecision" transform="matrix(1,0,0,1,-604,-159)" stroke="rgb(151,216,255)">
      <rect x="619" width="91" height="42" y="281.88" clip-path="url(#clipPath2)" stroke="none"/>
    </g>
    <g text-rendering="geometricPrecision" stroke-miterlimit="1.45" shape-rendering="geometricPrecision" font-family="sans-serif" transform="matrix(1,0,0,1,-604,-159)" stroke-linecap="butt">
      <text x="636.9961" xml:space="preserve" y="307.0343" clip-path="url(#clipPath2)" stroke="none">Batiment</text>
    </g>
    <g text-rendering="geometricPrecision" stroke-miterlimit="1.45" shape-rendering="geometricPrecision" font-family="sans-serif" transform="matrix(1,0,0,1,-604,-159)" stroke-linecap="butt">
      <text x="681.1826" xml:space="preserve" y="227.6743" clip-path="url(#clipPath2)" stroke="none">1</text>
    </g>
    <g text-rendering="geometricPrecision" stroke-miterlimit="1.45" shape-rendering="geometricPrecision" font-family="sans-serif" transform="matrix(1,0,0,1,-604,-159)" stroke-linecap="butt">
      <text x="682" xml:space="preserve" y="278.5143" clip-path="url(#clipPath2)" stroke="none">*</text>
    </g>
    <g fill="rgb(151,216,255)" text-rendering="geometricPrecision" shape-rendering="geometricPrecision" transform="matrix(1,0,0,1,-604,-159)" stroke="rgb(151,216,255)">
      <rect x="619" width="91" height="42" y="389.76" clip-path="url(#clipPath2)" stroke="none"/>
    </g>
    <g text-rendering="geometricPrecision" stroke-miterlimit="1.45" shape-rendering="geometricPrecision" font-family="sans-serif" transform="matrix(1,0,0,1,-604,-159)" stroke-linecap="butt">
      <text x="641.1152" xml:space="preserve" y="414.9143" clip-path="url(#clipPath2)" stroke="none">Escalier</text>
    </g>
    <g text-rendering="geometricPrecision" stroke-miterlimit="1.45" shape-rendering="geometricPrecision" font-family="sans-serif" transform="matrix(1,0,0,1,-604,-159)" stroke-linecap="butt">
      <text x="680.96" xml:space="preserve" y="386.3943" clip-path="url(#clipPath2)" stroke="none">*</text>
    </g>
    <g text-rendering="geometricPrecision" stroke-miterlimit="1.45" shape-rendering="geometricPrecision" font-family="sans-serif" transform="matrix(1,0,0,1,-604,-159)" stroke-linecap="butt">
      <text x="680.1426" xml:space="preserve" y="335.5543" clip-path="url(#clipPath2)" stroke="none">1</text>
    </g>
    <g fill="rgb(151,216,255)" text-rendering="geometricPrecision" shape-rendering="geometricPrecision" transform="matrix(1,0,0,1,-604,-159)" stroke="rgb(151,216,255)">
      <rect x="619" width="91" height="42" y="512.68" clip-path="url(#clipPath2)" stroke="none"/>
    </g>
    <g text-rendering="geometricPrecision" stroke-miterlimit="1.45" shape-rendering="geometricPrecision" font-family="sans-serif" transform="matrix(1,0,0,1,-604,-159)" stroke-linecap="butt">
      <text x="647.1797" xml:space="preserve" y="537.8343" clip-path="url(#clipPath2)" stroke="none">Etage</text>
    </g>
    <g text-rendering="geometricPrecision" stroke-miterlimit="1.45" shape-rendering="geometricPrecision" font-family="sans-serif" transform="matrix(1,0,0,1,-604,-159)" stroke-linecap="butt">
      <text x="680.96" xml:space="preserve" y="509.3143" clip-path="url(#clipPath2)" stroke="none">*</text>
    </g>
    <g text-rendering="geometricPrecision" stroke-miterlimit="1.45" shape-rendering="geometricPrecision" font-family="sans-serif" transform="matrix(1,0,0,1,-604,-159)" stroke-linecap="butt">
      <text x="680.1426" xml:space="preserve" y="443.4343" clip-path="url(#clipPath2)" stroke="none">1</text>
    </g>
    <g text-rendering="geometricPrecision" stroke-miterlimit="1.45" shape-rendering="geometricPrecision" transform="matrix(1,0,0,1,-604,-159)" stroke-linecap="butt">
      <path fill="none" d="M664.5 216 L664.5 273.88" clip-path="url(#clipPath2)"/>
      <path d="M664.5 281.88 L669.5 269.88 L664.5 272.88 L659.5 269.88 Z" clip-path="url(#clipPath2)" stroke="none"/>
      <path fill="none" d="M664.5 323.88 L664.5 381.76" clip-path="url(#clipPath2)"/>
      <path d="M664.5 389.76 L669.5 377.76 L664.5 380.76 L659.5 377.76 Z" clip-path="url(#clipPath2)" stroke="none"/>
      <path fill="none" d="M664.5 431.76 L664.5 504.68" clip-path="url(#clipPath2)"/>
      <path d="M664.5 512.68 L669.5 500.68 L664.5 503.68 L659.5 500.68 Z" clip-path="url(#clipPath2)" stroke="none"/>
    </g>
  </g>
</svg>
